<?xml version="1.0" encoding="UTF-8"?>
<!DOCTYPE svg PUBLIC "-//W3C//DTD SVG 1.1//EN" "http://www.w3.org/Graphics/SVG/1.1/DTD/svg11.dtd">
<svg xmlns="http://www.w3.org/2000/svg" version="1.1" width="50px" height="50px" style="shape-rendering:geometricPrecision; text-rendering:geometricPrecision; image-rendering:optimizeQuality; fill-rule:evenodd; clip-rule:evenodd" xmlns:xlink="http://www.w3.org/1999/xlink">
<g><path style="opacity:0.782" fill="#fefffe" d="M 21.5,2.5 C 25.9536,1.6171 29.4536,2.95043 32,6.5C 38.5343,4.85081 42.3676,7.35081 43.5,14C 42.8553,17.4683 41.1887,20.3017 38.5,22.5C 39.5526,27.1327 39.7193,31.7993 39,36.5C 29.3333,49.8333 19.6667,49.8333 10,36.5C 9.27196,31.4666 9.43862,26.4666 10.5,21.5C 8.20413,18.6936 6.53746,15.5269 5.5,12C 6.98735,4.78365 11.154,2.61698 18,5.5C 19.1451,4.36362 20.3117,3.36362 21.5,2.5 Z M 23.5,6.5 C 26.4118,6.78878 28.4118,8.28878 29.5,11C 32.409,10.7161 35.2423,10.8828 38,11.5C 38.9774,14.259 38.144,16.259 35.5,17.5C 34.5481,19.0453 34.2148,20.712 34.5,22.5C 27.8333,22.5 21.1667,22.5 14.5,22.5C 14.5,21.5 14.5,20.5 14.5,19.5C 16.1667,19.5 17.8333,19.5 19.5,19.5C 19.5,18.1667 19.5,16.8333 19.5,15.5C 16.8127,15.6641 14.146,15.4974 11.5,15C 10.4238,13.2739 10.2571,11.4406 11,9.5C 11.7247,8.94149 12.5581,8.60816 13.5,8.5C 15.1667,9.16667 16.8333,9.83333 18.5,10.5C 20.1856,9.14311 21.8523,7.80978 23.5,6.5 Z M 29.5,26.5 C 32.6985,26.6964 34.6985,28.3631 35.5,31.5C 29.3904,45.1616 22.2237,45.8282 14,33.5C 13.2195,32.0563 13.3861,30.723 14.5,29.5C 19.7345,29.0375 24.7345,28.0375 29.5,26.5 Z"/></g>
</svg>
