<?xml version="1.0" encoding="UTF-8"?>
<!DOCTYPE svg PUBLIC "-//W3C//DTD SVG 1.1//EN" "http://www.w3.org/Graphics/SVG/1.1/DTD/svg11.dtd">
<svg xmlns="http://www.w3.org/2000/svg" version="1.1" width="50px" height="50px" style="shape-rendering:geometricPrecision; text-rendering:geometricPrecision; image-rendering:optimizeQuality; fill-rule:evenodd; clip-rule:evenodd" xmlns:xlink="http://www.w3.org/1999/xlink">
<g><path style="opacity:0.758" fill="#fefffe" d="M 16.5,-0.5 C 19.8333,-0.5 23.1667,-0.5 26.5,-0.5C 34.6784,5.58607 35.5117,12.5861 29,20.5C 28.6667,16.8333 28.3333,13.1667 28,9.5C 24.178,3.25444 19.8447,2.9211 15,8.5C 14.6667,12.5 14.3333,16.5 14,20.5C 7.48828,12.5861 8.32161,5.58607 16.5,-0.5 Z"/></g>
<g><path style="opacity:0.92" fill="#fefffe" d="M 19.5,7.5 C 21.1439,7.28649 22.6439,7.61983 24,8.5C 24.1971,13.0855 24.6971,17.5855 25.5,22C 29.147,22.7745 32.8136,23.4412 36.5,24C 38.3289,24.2735 39.8289,25.1068 41,26.5C 41.6667,31.8333 41.6667,37.1667 41,42.5C 40.1667,43.3333 39.3333,44.1667 38.5,45C 32.1667,45.6667 25.8333,45.6667 19.5,45C 15,40.5 10.5,36 6,31.5C 5.38277,30.5509 5.54943,29.7175 6.5,29C 9.91788,26.9805 13.2512,27.1472 16.5,29.5C 17.3309,22.8581 17.8309,16.1915 18,9.5C 18.7172,8.9558 19.2172,8.28913 19.5,7.5 Z"/></g>
</svg>
