<?xml version="1.0" encoding="UTF-8"?>
<!DOCTYPE svg PUBLIC "-//W3C//DTD SVG 1.1//EN" "http://www.w3.org/Graphics/SVG/1.1/DTD/svg11.dtd">
<svg xmlns="http://www.w3.org/2000/svg" version="1.1" width="50px" height="50px" style="shape-rendering:geometricPrecision; text-rendering:geometricPrecision; image-rendering:optimizeQuality; fill-rule:evenodd; clip-rule:evenodd" xmlns:xlink="http://www.w3.org/1999/xlink">
<g><path style="opacity:0.71" fill="#fefffe" d="M 21.5,5.5 C 26.6511,5.65355 27.9845,7.82022 25.5,12C 19.7377,12.4178 18.4044,10.2511 21.5,5.5 Z"/></g>
<g><path style="opacity:0.695" fill="#fefffe" d="M 31.5,7.5 C 37.5548,6.9421 38.8881,9.10877 35.5,14C 30.5705,14.427 29.2372,12.2604 31.5,7.5 Z"/></g>
<g><path style="opacity:0.632" fill="#fefffe" d="M 10.5,9.5 C 14.1612,9.35012 15.1612,10.8501 13.5,14C 9.70713,14.4866 8.70713,12.9866 10.5,9.5 Z"/></g>
<g><path style="opacity:0.717" fill="#fefffe" d="M 38.5,17.5 C 42.9346,17.7521 44.268,19.9188 42.5,24C 36.3389,24.878 35.0055,22.7113 38.5,17.5 Z"/></g>
<g><path style="opacity:0.606" fill="#fefffe" d="M 6.5,19.5 C 10.1612,19.3501 11.1612,20.8501 9.5,24C 8.20677,24.49 6.87344,24.6567 5.5,24.5C 5.36596,22.7085 5.69929,21.0418 6.5,19.5 Z"/></g>
<g><path style="opacity:0.787" fill="#fefffe" d="M 34.5,28.5 C 41.4863,28.331 43.153,31.1643 39.5,37C 32.4159,37.475 30.7492,34.6417 34.5,28.5 Z"/></g>
<g><path style="opacity:0.58" fill="#fefffe" d="M 9.5,30.5 C 11.1667,30.5 12.8333,30.5 14.5,30.5C 15.1693,34.6759 13.6693,36.0093 10,34.5C 9.50999,33.2068 9.34332,31.8734 9.5,30.5 Z"/></g>
<g><path style="opacity:0.814" fill="#fefffe" d="M 20.5,32.5 C 25.4058,31.3057 28.4058,33.139 29.5,38C 27.5156,43.7465 24.0156,44.9132 19,41.5C 17.0583,38.1406 17.5583,35.1406 20.5,32.5 Z"/></g>
</svg>
