<?xml version="1.0" encoding="UTF-8"?>
<!DOCTYPE svg PUBLIC "-//W3C//DTD SVG 1.1//EN" "http://www.w3.org/Graphics/SVG/1.1/DTD/svg11.dtd">
<svg xmlns="http://www.w3.org/2000/svg" version="1.1" width="50px" height="50px" style="shape-rendering:geometricPrecision; text-rendering:geometricPrecision; image-rendering:optimizeQuality; fill-rule:evenodd; clip-rule:evenodd" xmlns:xlink="http://www.w3.org/1999/xlink">
<g><path style="opacity:0.767" fill="#fefffe" d="M 13.5,3.5 C 30.9296,3.25475 36.5963,11.2548 30.5,27.5C 36.0354,30.5247 40.8687,34.5247 45,39.5C 45.1667,43.3333 43.3333,45.1667 39.5,45C 34.5247,40.8687 30.5247,36.0354 27.5,30.5C 11.1142,36.6114 3.28082,30.9448 4,13.5C 5.68591,8.64985 8.85258,5.31652 13.5,3.5 Z M 15.5,8.5 C 26.5793,9.05512 30.0793,14.3885 26,24.5C 17.4351,30.5893 11.6018,28.5893 8.5,18.5C 8.89752,13.6726 11.2308,10.3393 15.5,8.5 Z"/></g>
</svg>
