<?xml version="1.0" encoding="UTF-8"?>
<!DOCTYPE svg PUBLIC "-//W3C//DTD SVG 1.1//EN" "http://www.w3.org/Graphics/SVG/1.1/DTD/svg11.dtd">
<svg xmlns="http://www.w3.org/2000/svg" version="1.1" width="50px" height="50px" style="shape-rendering:geometricPrecision; text-rendering:geometricPrecision; image-rendering:optimizeQuality; fill-rule:evenodd; clip-rule:evenodd" xmlns:xlink="http://www.w3.org/1999/xlink">
<g><path style="opacity:0.727" fill="#fefffe" d="M 3.5,8.5 C 9.01591,8.47337 10.3492,10.64 7.5,15C 2.57049,15.427 1.23716,13.2604 3.5,8.5 Z"/></g>
<g><path style="opacity:0.807" fill="#fefffe" d="M 13.5,9.5 C 24.1667,9.5 34.8333,9.5 45.5,9.5C 45.5,11.1667 45.5,12.8333 45.5,14.5C 34.8333,14.5 24.1667,14.5 13.5,14.5C 13.5,12.8333 13.5,11.1667 13.5,9.5 Z"/></g>
<g><path style="opacity:0.683" fill="#fefffe" d="M 4.5,20.5 C 8.53325,20.6914 10.0332,22.6914 9,26.5C 5.70876,29.4366 3.5421,28.7699 2.5,24.5C 2.80288,22.8857 3.46954,21.5523 4.5,20.5 Z"/></g>
<g><path style="opacity:0.611" fill="#fefffe" d="M 13.5,21.5 C 21.5069,21.3336 29.5069,21.5003 37.5,22C 33.764,22.8188 30.4306,24.4855 27.5,27C 22.8452,27.4992 18.1785,27.6658 13.5,27.5C 13.5,25.5 13.5,23.5 13.5,21.5 Z"/></g>
<g><path style="opacity:0.793" fill="#fefffe" d="M 49.5,45.5 C 49.5,46.5 49.5,47.5 49.5,48.5C 48.8333,48.5 48.5,48.8333 48.5,49.5C 47.5,49.5 46.5,49.5 45.5,49.5C 44.8549,48.1882 43.8549,47.1882 42.5,46.5C 29.1277,48.9598 24.2944,43.6265 28,30.5C 32.5463,26.2512 37.7129,25.4179 43.5,28C 47.5027,32.1406 48.5027,36.9739 46.5,42.5C 47.1882,43.8549 48.1882,44.8549 49.5,45.5 Z M 34.5,31.5 C 42.8185,31.9869 44.4851,35.4869 39.5,42C 31.0878,41.8117 29.4211,38.3117 34.5,31.5 Z"/></g>
<g><path style="opacity:0.727" fill="#fefffe" d="M 3.5,33.5 C 9.01591,33.4734 10.3492,35.64 7.5,40C 2.57049,40.427 1.23716,38.2604 3.5,33.5 Z"/></g>
<g><path style="opacity:0.71" fill="#fefffe" d="M 13.5,34.5 C 16.8984,34.1796 20.2317,34.513 23.5,35.5C 22.1667,36.5 22.1667,37.5 23.5,38.5C 20.2317,39.487 16.8984,39.8204 13.5,39.5C 13.5,37.8333 13.5,36.1667 13.5,34.5 Z"/></g>
</svg>
