<?xml version="1.0" encoding="UTF-8"?>
<!DOCTYPE svg PUBLIC "-//W3C//DTD SVG 1.1//EN" "http://www.w3.org/Graphics/SVG/1.1/DTD/svg11.dtd">
<svg xmlns="http://www.w3.org/2000/svg" version="1.1" width="50px" height="50px" style="shape-rendering:geometricPrecision; text-rendering:geometricPrecision; image-rendering:optimizeQuality; fill-rule:evenodd; clip-rule:evenodd" xmlns:xlink="http://www.w3.org/1999/xlink">
<g><path style="opacity:0.78" fill="#fefffe" d="M 42.5,-0.5 C 43.8333,-0.5 45.1667,-0.5 46.5,-0.5C 47.1667,0.833333 48.1667,1.83333 49.5,2.5C 49.5,3.5 49.5,4.5 49.5,5.5C 48.399,6.79969 47.0657,7.29969 45.5,7C 42.1555,5.23254 41.1555,2.73254 42.5,-0.5 Z"/></g>
<g><path style="opacity:0.78" fill="#fefffe" d="M 38.5,3.5 C 41.9754,4.80176 44.1421,7.13509 45,10.5C 40.5,15 36,19.5 31.5,24C 29.1902,24.4966 26.8568,24.6633 24.5,24.5C 24.3367,22.1432 24.5034,19.8098 25,17.5C 29.7033,12.9645 34.2033,8.29788 38.5,3.5 Z"/></g>
<g><path style="opacity:0.857" fill="#fefffe" d="M 7.5,5.5 C 15.84,5.3336 24.1733,5.50027 32.5,6C 29.8333,8.66667 27.1667,11.3333 24.5,14C 19.8452,14.4992 15.1785,14.6658 10.5,14.5C 10.5,22.5 10.5,30.5 10.5,38.5C 19.8333,38.5 29.1667,38.5 38.5,38.5C 38.3338,32.4908 38.5005,26.4908 39,20.5C 40.3333,19.1667 41.6667,17.8333 43,16.5C 43.6667,24.8333 43.6667,33.1667 43,41.5C 42.5,42 42,42.5 41.5,43C 30.1667,43.6667 18.8333,43.6667 7.5,43C 7,42.5 6.5,42 6,41.5C 5.33333,30.1667 5.33333,18.8333 6,7.5C 6.71719,6.9558 7.21719,6.28913 7.5,5.5 Z"/></g>
</svg>
