<?xml version="1.0" encoding="UTF-8"?>
<!DOCTYPE svg PUBLIC "-//W3C//DTD SVG 1.1//EN" "http://www.w3.org/Graphics/SVG/1.1/DTD/svg11.dtd">
<svg xmlns="http://www.w3.org/2000/svg" version="1.1" width="50px" height="50px" style="shape-rendering:geometricPrecision; text-rendering:geometricPrecision; image-rendering:optimizeQuality; fill-rule:evenodd; clip-rule:evenodd" xmlns:xlink="http://www.w3.org/1999/xlink">
<g><path style="opacity:0.819" fill="#fefffe" d="M 5.5,3.5 C 7.16667,3.5 8.83333,3.5 10.5,3.5C 10.5,8.16667 10.5,12.8333 10.5,17.5C 11.5,17.5 12.5,17.5 13.5,17.5C 13.5,12.8333 13.5,8.16667 13.5,3.5C 15.1667,3.5 16.8333,3.5 18.5,3.5C 18.5,8.16667 18.5,12.8333 18.5,17.5C 19.5,17.5 20.5,17.5 21.5,17.5C 21.5,12.8333 21.5,8.16667 21.5,3.5C 23.5,3.5 25.5,3.5 27.5,3.5C 27.8696,9.92507 27.3696,16.2584 26,22.5C 24.4137,25.1339 22.0803,26.8005 19,27.5C 18.5005,33.4908 18.3338,39.4908 18.5,45.5C 16.8333,45.5 15.1667,45.5 13.5,45.5C 13.5,39.1667 13.5,32.8333 13.5,26.5C 10.2155,26.7307 7.71547,25.3974 6,22.5C 5.50046,16.1754 5.33379,9.84209 5.5,3.5 Z"/></g>
<g><path style="opacity:0.885" fill="#fefffe" d="M 38.5,3.5 C 40.1667,3.5 41.8333,3.5 43.5,3.5C 43.5,17.5 43.5,31.5 43.5,45.5C 41.8333,45.5 40.1667,45.5 38.5,45.5C 38.5,40.1667 38.5,34.8333 38.5,29.5C 36.5,29.5 34.5,29.5 32.5,29.5C 32.3337,22.825 32.5004,16.1583 33,9.5C 34.3597,6.97739 36.193,4.97739 38.5,3.5 Z"/></g>
</svg>
