<?xml version="1.0" encoding="UTF-8"?>
<!DOCTYPE svg PUBLIC "-//W3C//DTD SVG 1.1//EN" "http://www.w3.org/Graphics/SVG/1.1/DTD/svg11.dtd">
<svg xmlns="http://www.w3.org/2000/svg" version="1.1" width="50px" height="50px" style="shape-rendering:geometricPrecision; text-rendering:geometricPrecision; image-rendering:optimizeQuality; fill-rule:evenodd; clip-rule:evenodd" xmlns:xlink="http://www.w3.org/1999/xlink">
<g><path style="opacity:0.904" fill="#fefffe" d="M 49.5,24.5 C 49.5,27.8333 49.5,31.1667 49.5,34.5C 47.691,37.1393 45.3576,39.3059 42.5,41C 31.1667,41.6667 19.8333,41.6667 8.5,41C 4.69966,39.3584 1.69966,36.8584 -0.5,33.5C -0.5,29.8333 -0.5,26.1667 -0.5,22.5C 1.94067,16.9286 6.274,13.7619 12.5,13C 18.7258,6.94233 25.7258,5.94233 33.5,10C 36.07,12.0673 38.07,14.5673 39.5,17.5C 43.956,18.3815 47.2893,20.7148 49.5,24.5 Z M 18.5,20.5 C 20.736,21.3891 22.736,22.7224 24.5,24.5C 26.1667,23.1667 27.8333,21.8333 29.5,20.5C 30.3081,20.8076 30.9747,21.3076 31.5,22C 29.8333,23.6667 28.1667,25.3333 26.5,27C 28.019,28.3513 29.3523,29.8513 30.5,31.5C 30.1924,32.3081 29.6924,32.9747 29,33.5C 27.6487,31.981 26.1487,30.6477 24.5,29.5C 22.8513,30.6477 21.3513,31.981 20,33.5C 18.7705,32.7248 18.4372,31.7248 19,30.5C 20.1667,29.3333 21.3333,28.1667 22.5,27C 20.8333,25.3333 19.1667,23.6667 17.5,22C 18.056,21.6174 18.3893,21.1174 18.5,20.5 Z"/></g>
</svg>
