<?xml version="1.0" encoding="UTF-8"?>
<!DOCTYPE svg PUBLIC "-//W3C//DTD SVG 1.1//EN" "http://www.w3.org/Graphics/SVG/1.1/DTD/svg11.dtd">
<svg xmlns="http://www.w3.org/2000/svg" version="1.1" width="50px" height="50px" style="shape-rendering:geometricPrecision; text-rendering:geometricPrecision; image-rendering:optimizeQuality; fill-rule:evenodd; clip-rule:evenodd" xmlns:xlink="http://www.w3.org/1999/xlink">
<g><path style="opacity:0.749" fill="#fefffe" d="M 17.5,4.5 C 37.6499,2.48275 46.4833,11.4828 44,31.5C 38.6574,42.7523 29.8241,46.9189 17.5,44C 6.24773,38.6574 2.08107,29.8241 5,17.5C 7.35314,11.3154 11.5198,6.98203 17.5,4.5 Z M 20.5,8.5 C 37.5458,9.03993 43.3792,17.3733 38,33.5C 29,42.8333 20,42.8333 11,33.5C 6.01989,21.9278 9.18655,13.5945 20.5,8.5 Z"/></g>
<g><path style="opacity:0.692" fill="#fefffe" d="M 15.5,20.5 C 19.0681,20.7593 20.4015,22.7593 19.5,26.5C 17.8333,26.5 16.1667,26.5 14.5,26.5C 14.3253,24.3792 14.6586,22.3792 15.5,20.5 Z"/></g>
<g><path style="opacity:0.692" fill="#fefffe" d="M 30.5,20.5 C 34.0681,20.7593 35.4015,22.7593 34.5,26.5C 32.8333,26.5 31.1667,26.5 29.5,26.5C 29.3253,24.3792 29.6586,22.3792 30.5,20.5 Z"/></g>
<g><path style="opacity:0.727" fill="#fefffe" d="M 19.5,29.5 C 22.8499,29.335 26.1832,29.5017 29.5,30C 31.0368,31.1096 31.7035,32.6096 31.5,34.5C 26.8333,33.1667 22.1667,33.1667 17.5,34.5C 17.3915,32.4862 18.0582,30.8195 19.5,29.5 Z"/></g>
</svg>
