<?xml version="1.0" encoding="UTF-8"?>
<!DOCTYPE svg PUBLIC "-//W3C//DTD SVG 1.1//EN" "http://www.w3.org/Graphics/SVG/1.1/DTD/svg11.dtd">
<svg xmlns="http://www.w3.org/2000/svg" version="1.1" width="50px" height="50px" style="shape-rendering:geometricPrecision; text-rendering:geometricPrecision; image-rendering:optimizeQuality; fill-rule:evenodd; clip-rule:evenodd" xmlns:xlink="http://www.w3.org/1999/xlink">
<g><path style="opacity:0.845" fill="#fefffe" d="M 19.5,3.5 C 27.3263,4.92327 35.3263,5.58994 43.5,5.5C 43.4436,8.39399 42.6103,11.0607 41,13.5C 39.9935,23.5523 38.6602,33.5523 37,43.5C 36.5,44 36,44.5 35.5,45C 28.1667,45.6667 20.8333,45.6667 13.5,45C 13,44.5 12.5,44 12,43.5C 10.3398,33.5523 9.00647,23.5523 8,13.5C 6.38974,11.0607 5.55641,8.39399 5.5,5.5C 9.84611,5.66568 14.1794,5.49902 18.5,5C 19.056,4.61742 19.3893,4.11742 19.5,3.5 Z M 12.5,11.5 C 20.3225,10.3439 28.3225,10.1772 36.5,11C 34.9657,20.7713 33.6324,30.6046 32.5,40.5C 27.1667,40.5 21.8333,40.5 16.5,40.5C 15.3979,30.6699 14.0646,21.0032 12.5,11.5 Z"/></g>
<g><path style="opacity:0.795" fill="#fefffe" d="M 17.5,13.5 C 19.1667,13.5 20.8333,13.5 22.5,13.5C 22.5,21.5 22.5,29.5 22.5,37.5C 20.8561,37.7135 19.3561,37.3802 18,36.5C 17.5003,28.8406 17.3336,21.1739 17.5,13.5 Z"/></g>
<g><path style="opacity:0.795" fill="#fefffe" d="M 26.5,13.5 C 28.1667,13.5 29.8333,13.5 31.5,13.5C 31.6664,21.1739 31.4997,28.8406 31,36.5C 29.6439,37.3802 28.1439,37.7135 26.5,37.5C 26.5,29.5 26.5,21.5 26.5,13.5 Z"/></g>
</svg>
